{
    "asset" : {
        "generator" : "Khronos glTF Blender I/O v0.9.36",
        "version" : "2.0"
    },
    "scene" : 0,
    "scenes" : [
        {
            "name" : "Scene",
            "nodes" : [
                0,
                1,
                2
            ]
        }
    ],
    "nodes" : [
        {
            "name" : "Light",
            "rotation" : [
                0.16907575726509094,
                0.7558803558349609,
                -0.27217137813568115,
                0.570947527885437
            ],
            "translation" : [
                4.076245307922363,
                5.903861999511719,
                -1.0054539442062378
            ]
        },
        {
            "name" : "Camera",
            "rotation" : [
                0.483536034822464,
                0.33687159419059753,
                -0.20870360732078552,
                0.7804827094078064
            ],
            "translation" : [
                7.358891487121582,
                4.958309173583984,
                6.925790786743164
            ]
        },
        {
            "mesh" : 0,
            "name" : "Guayabo-290"
        }
    ],
    "meshes" : [
        {
            "name" : "Guayabo-290",
            "primitives" : [
                {
                    "attributes" : {
                        "POSITION" : 0,
                        "NORMAL" : 1
                    },
                    "indices" : 2
                },
                {
                    "attributes" : {
                        "POSITION" : 3,
                        "NORMAL" : 4
                    },
                    "indices" : 2
                },
                {
                    "attributes" : {
                        "POSITION" : 5,
                        "NORMAL" : 6
                    },
                    "indices" : 2
                },
                {
                    "attributes" : {
                        "POSITION" : 7,
                        "NORMAL" : 8
                    },
                    "indices" : 2
                },
                {
                    "attributes" : {
                        "POSITION" : 9,
                        "NORMAL" : 10
                    },
                    "indices" : 2
                },
                {
                    "attributes" : {
                        "POSITION" : 11,
                        "NORMAL" : 12
                    },
                    "indices" : 2
                },
                {
                    "attributes" : {
                        "POSITION" : 13,
                        "NORMAL" : 14
                    },
                    "indices" : 2
                },
                {
                    "attributes" : {
                        "POSITION" : 15,
                        "NORMAL" : 16
                    },
                    "indices" : 2
                },
                {
                    "attributes" : {
                        "POSITION" : 17,
                        "NORMAL" : 18
                    },
                    "indices" : 19
                },
                {
                    "attributes" : {
                        "POSITION" : 20,
                        "NORMAL" : 21
                    },
                    "indices" : 22
                },
                {
                    "attributes" : {
                        "POSITION" : 23,
                        "NORMAL" : 24
                    },
                    "indices" : 22
                },
                {
                    "attributes" : {
                        "POSITION" : 25,
                        "NORMAL" : 26
                    },
                    "indices" : 22
                },
                {
                    "attributes" : {
                        "POSITION" : 27,
                        "NORMAL" : 28
                    },
                    "indices" : 22
                },
                {
                    "attributes" : {
                        "POSITION" : 29,
                        "NORMAL" : 30
                    },
                    "indices" : 31
                },
                {
                    "attributes" : {
                        "POSITION" : 32,
                        "NORMAL" : 33
                    },
                    "indices" : 34
                }
            ]
        }
    ],
    "accessors" : [
        {
            "bufferView" : 0,
            "componentType" : 5126,
            "count" : 65535,
            "max" : [
                -0.10601216554641724,
                1.5262969732284546,
                1.4716401100158691
            ],
            "min" : [
                -1.017856478691101,
                0.8135727643966675,
                1.0333160161972046
            ],
            "type" : "VEC3"
        },
        {
            "bufferView" : 1,
            "componentType" : 5126,
            "count" : 65535,
            "type" : "VEC3"
        },
        {
            "bufferView" : 2,
            "componentType" : 5123,
            "count" : 65535,
            "type" : "SCALAR"
        },
        {
            "bufferView" : 3,
            "componentType" : 5126,
            "count" : 65535,
            "max" : [
                -0.4366406798362732,
                1.2573268413543701,
                1.2650138139724731
            ],
            "min" : [
                -1.0126272439956665,
                0.7485991716384888,
                0.9059863090515137
            ],
            "type" : "VEC3"
        },
        {
            "bufferView" : 4,
            "componentType" : 5126,
            "count" : 65535,
            "type" : "VEC3"
        },
        {
            "bufferView" : 5,
            "componentType" : 5126,
            "count" : 65535,
            "max" : [
                -0.10756656527519226,
                0.9288218021392822,
                1.1949470043182373
            ],
            "min" : [
                -0.7711880207061768,
                0.6748734712600708,
                0.9438709616661072
            ],
            "type" : "VEC3"
        },
        {
            "bufferView" : 6,
            "componentType" : 5126,
            "count" : 65535,
            "type" : "VEC3"
        },
        {
            "bufferView" : 7,
            "componentType" : 5126,
            "count" : 65535,
            "max" : [
                -0.10548453778028488,
                1.2571346759796143,
                1.0223506689071655
            ],
            "min" : [
                -0.7727932929992676,
                0.7561112642288208,
                0.8640871047973633
            ],
            "type" : "VEC3"
        },
        {
            "bufferView" : 8,
            "componentType" : 5126,
            "count" : 65535,
            "type" : "VEC3"
        },
        {
            "bufferView" : 9,
            "componentType" : 5126,
            "count" : 65535,
            "max" : [
                -0.10771189630031586,
                1.5000379085540771,
                1.2784481048583984
            ],
            "min" : [
                -1.0229041576385498,
                1.0848708152770996,
                0.8429640531539917
            ],
            "type" : "VEC3"
        },
        {
            "bufferView" : 10,
            "componentType" : 5126,
            "count" : 65535,
            "type" : "VEC3"
        },
        {
            "bufferView" : 11,
            "componentType" : 5126,
            "count" : 65535,
            "max" : [
                -0.10642365366220474,
                1.5368627309799194,
                1.2799859046936035
            ],
            "min" : [
                -0.7745591998100281,
                1.3592727184295654,
                0.9429376125335693
            ],
            "type" : "VEC3"
        },
        {
            "bufferView" : 12,
            "componentType" : 5126,
            "count" : 65535,
            "type" : "VEC3"
        },
        {
            "bufferView" : 13,
            "componentType" : 5126,
            "count" : 65535,
            "max" : [
                -0.15931129455566406,
                1.5236009359359741,
                1.196256160736084
            ],
            "min" : [
                -0.771476686000824,
                1.2491949796676636,
                0.833635687828064
            ],
            "type" : "VEC3"
        },
        {
            "bufferView" : 14,
            "componentType" : 5126,
            "count" : 65535,
            "type" : "VEC3"
        },
        {
            "bufferView" : 15,
            "componentType" : 5126,
            "count" : 65535,
            "max" : [
                0.4873913526535034,
                1.5109434127807617,
                1.4756524562835693
            ],
            "min" : [
                -0.44240182638168335,
                0.8187097311019897,
                0.8360397219657898
            ],
            "type" : "VEC3"
        },
        {
            "bufferView" : 16,
            "componentType" : 5126,
            "count" : 65535,
            "type" : "VEC3"
        },
        {
            "bufferView" : 17,
            "componentType" : 5126,
            "count" : 65533,
            "max" : [
                0.48916566371917725,
                1.4480202198028564,
                1.4794983863830566
            ],
            "min" : [
                -0.11505615711212158,
                0.6654174327850342,
                0.9603227376937866
            ],
            "type" : "VEC3"
        },
        {
            "bufferView" : 18,
            "componentType" : 5126,
            "count" : 65533,
            "type" : "VEC3"
        },
        {
            "bufferView" : 19,
            "componentType" : 5123,
            "count" : 65535,
            "type" : "SCALAR"
        },
        {
            "bufferView" : 20,
            "componentType" : 5126,
            "count" : 65532,
            "max" : [
                0.4879821538925171,
                1.0108113288879395,
                1.2777125835418701
            ],
            "min" : [
                -0.11491312086582184,
                0.6766836047172546,
                0.9264122843742371
            ],
            "type" : "VEC3"
        },
        {
            "bufferView" : 21,
            "componentType" : 5126,
            "count" : 65532,
            "type" : "VEC3"
        },
        {
            "bufferView" : 22,
            "componentType" : 5123,
            "count" : 65532,
            "type" : "SCALAR"
        },
        {
            "bufferView" : 23,
            "componentType" : 5126,
            "count" : 65532,
            "max" : [
                0.5495667457580566,
                1.2548147439956665,
                1.2779343128204346
            ],
            "min" : [
                -0.11426994204521179,
                0.9196839332580566,
                0.9136339426040649
            ],
            "type" : "VEC3"
        },
        {
            "bufferView" : 24,
            "componentType" : 5126,
            "count" : 65532,
            "type" : "VEC3"
        },
        {
            "bufferView" : 25,
            "componentType" : 5126,
            "count" : 65532,
            "max" : [
                0.5868017673492432,
                1.401528000831604,
                1.2784481048583984
            ],
            "min" : [
                -0.11638052761554718,
                0.9421426057815552,
                0.8521205186843872
            ],
            "type" : "VEC3"
        },
        {
            "bufferView" : 26,
            "componentType" : 5126,
            "count" : 65532,
            "type" : "VEC3"
        },
        {
            "bufferView" : 27,
            "componentType" : 5126,
            "count" : 65532,
            "max" : [
                0.5478779077529907,
                1.3815717697143555,
                1.2773244380950928
            ],
            "min" : [
                -0.11429363489151001,
                1.248368740081787,
                0.8436927199363708
            ],
            "type" : "VEC3"
        },
        {
            "bufferView" : 28,
            "componentType" : 5126,
            "count" : 65532,
            "type" : "VEC3"
        },
        {
            "bufferView" : 29,
            "componentType" : 5126,
            "count" : 17199,
            "max" : [
                0.5722200870513916,
                1.3504424095153809,
                1.223867416381836
            ],
            "min" : [
                -0.9786863327026367,
                0.6729320287704468,
                0.8550833463668823
            ],
            "type" : "VEC3"
        },
        {
            "bufferView" : 30,
            "componentType" : 5126,
            "count" : 17199,
            "type" : "VEC3"
        },
        {
            "bufferView" : 31,
            "componentType" : 5123,
            "count" : 17202,
            "type" : "SCALAR"
        },
        {
            "bufferView" : 32,
            "componentType" : 5126,
            "count" : 18,
            "max" : [
                0.3913800120353699,
                1.3709492683410645,
                1.251271367073059
            ],
            "min" : [
                -0.3062891960144043,
                0.687527060508728,
                0.9285869598388672
            ],
            "type" : "VEC3"
        },
        {
            "bufferView" : 33,
            "componentType" : 5126,
            "count" : 18,
            "type" : "VEC3"
        },
        {
            "bufferView" : 34,
            "componentType" : 5123,
            "count" : 18,
            "type" : "SCALAR"
        }
    ],
    "bufferViews" : [
        {
            "buffer" : 0,
            "byteLength" : 786420,
            "byteOffset" : 0
        },
        {
            "buffer" : 0,
            "byteLength" : 786420,
            "byteOffset" : 786420
        },
        {
            "buffer" : 0,
            "byteLength" : 131070,
            "byteOffset" : 1572840
        },
        {
            "buffer" : 0,
            "byteLength" : 786420,
            "byteOffset" : 1703912
        },
        {
            "buffer" : 0,
            "byteLength" : 786420,
            "byteOffset" : 2490332
        },
        {
            "buffer" : 0,
            "byteLength" : 786420,
            "byteOffset" : 3276752
        },
        {
            "buffer" : 0,
            "byteLength" : 786420,
            "byteOffset" : 4063172
        },
        {
            "buffer" : 0,
            "byteLength" : 786420,
            "byteOffset" : 4849592
        },
        {
            "buffer" : 0,
            "byteLength" : 786420,
            "byteOffset" : 5636012
        },
        {
            "buffer" : 0,
            "byteLength" : 786420,
            "byteOffset" : 6422432
        },
        {
            "buffer" : 0,
            "byteLength" : 786420,
            "byteOffset" : 7208852
        },
        {
            "buffer" : 0,
            "byteLength" : 786420,
            "byteOffset" : 7995272
        },
        {
            "buffer" : 0,
            "byteLength" : 786420,
            "byteOffset" : 8781692
        },
        {
            "buffer" : 0,
            "byteLength" : 786420,
            "byteOffset" : 9568112
        },
        {
            "buffer" : 0,
            "byteLength" : 786420,
            "byteOffset" : 10354532
        },
        {
            "buffer" : 0,
            "byteLength" : 786420,
            "byteOffset" : 11140952
        },
        {
            "buffer" : 0,
            "byteLength" : 786420,
            "byteOffset" : 11927372
        },
        {
            "buffer" : 0,
            "byteLength" : 786396,
            "byteOffset" : 12713792
        },
        {
            "buffer" : 0,
            "byteLength" : 786396,
            "byteOffset" : 13500188
        },
        {
            "buffer" : 0,
            "byteLength" : 131070,
            "byteOffset" : 14286584
        },
        {
            "buffer" : 0,
            "byteLength" : 786384,
            "byteOffset" : 14417656
        },
        {
            "buffer" : 0,
            "byteLength" : 786384,
            "byteOffset" : 15204040
        },
        {
            "buffer" : 0,
            "byteLength" : 131064,
            "byteOffset" : 15990424
        },
        {
            "buffer" : 0,
            "byteLength" : 786384,
            "byteOffset" : 16121488
        },
        {
            "buffer" : 0,
            "byteLength" : 786384,
            "byteOffset" : 16907872
        },
        {
            "buffer" : 0,
            "byteLength" : 786384,
            "byteOffset" : 17694256
        },
        {
            "buffer" : 0,
            "byteLength" : 786384,
            "byteOffset" : 18480640
        },
        {
            "buffer" : 0,
            "byteLength" : 786384,
            "byteOffset" : 19267024
        },
        {
            "buffer" : 0,
            "byteLength" : 786384,
            "byteOffset" : 20053408
        },
        {
            "buffer" : 0,
            "byteLength" : 206388,
            "byteOffset" : 20839792
        },
        {
            "buffer" : 0,
            "byteLength" : 206388,
            "byteOffset" : 21046180
        },
        {
            "buffer" : 0,
            "byteLength" : 34404,
            "byteOffset" : 21252568
        },
        {
            "buffer" : 0,
            "byteLength" : 216,
            "byteOffset" : 21286972
        },
        {
            "buffer" : 0,
            "byteLength" : 216,
            "byteOffset" : 21287188
        },
        {
            "buffer" : 0,
            "byteLength" : 36,
            "byteOffset" : 21287404
        }
    ],
    "buffers" : [
        {
            "byteLength" : 21287440,
            "uri" : "lagarto.bin"
        }
    ]
}
